<svg width="41" height="41" viewBox="0 0 41 41" fill="none" xmlns="http://www.w3.org/2000/svg">
<g clip-path="url(#clip0_38_134)">
<path fill-rule="evenodd" clip-rule="evenodd" d="M20.4992 0.510825C9.17971 0.510825 0 9.689 0 21.01C0 30.0679 5.87312 37.7494 14.0185 40.4613C15.0438 40.6512 15.4206 40.0156 15.4206 39.4738C15.4206 38.985 15.4002 37.3703 15.3918 35.6588C9.68824 36.899 8.48591 33.239 8.48591 33.239C7.55367 30.8691 6.20983 30.2389 6.20983 30.2389C4.34997 28.9654 6.35135 28.9934 6.35135 28.9934C8.40942 29.1372 9.49297 31.1045 9.49297 31.1045C11.3226 34.2386 14.2902 33.3313 15.4592 32.8084C15.6438 31.4836 16.1735 30.5786 16.7606 30.0664C12.207 29.5496 7.42049 27.7911 7.42049 19.9355C7.42049 17.6981 8.22255 15.8685 9.53231 14.4338C9.31898 13.9164 8.61679 11.8325 9.72981 9.00942C9.72981 9.00942 11.4512 8.45784 15.3692 11.1107C17.0035 10.6574 18.7567 10.4289 20.4978 10.4214C22.2403 10.4289 23.9965 10.6567 25.6331 11.1107C29.5458 8.45938 31.2656 9.00942 31.2656 9.00942C32.3802 11.8333 31.6811 13.9186 31.4677 14.4339C32.782 15.8685 33.5773 17.6981 33.5773 19.9355C33.5773 27.8093 28.7801 29.5404 24.2166 30.0482C24.9522 30.6838 25.6089 31.9315 25.6089 33.8428C25.6089 36.5842 25.5855 38.7935 25.5855 39.4677C25.5855 40.0133 25.9547 40.6512 26.9943 40.4514C35.1351 37.7381 41.0008 30.0557 41.0008 21.0031C41.0008 9.68361 31.8226 0.503906 20.5008 0.503906L20.4993 0.510761L20.4992 0.510825Z" fill="white"/>
</g>
<defs>
<clipPath id="clip0_38_134">
<rect width="41" height="41" fill="white"/>
</clipPath>
</defs>
</svg>
